<svg width="34" height="34" viewBox="0 0 34 34" fill="none" xmlns="http://www.w3.org/2000/svg">
<circle cx="17" cy="17" r="17" fill="#FC5130"/>
<path d="M17 27C22.523 27 27 22.523 27 17C27 11.477 22.523 7 17 7C11.477 7 7.00001 11.477 7.00001 17C6.99776 18.978 7.58395 20.9121 8.68401 22.556C8.80567 22.7377 8.57767 23.8857 8.00001 26C10.1147 25.4223 11.2627 25.1943 11.444 25.316C13.0879 26.4161 15.022 27.0023 17 27Z" stroke="white" stroke-width="2" stroke-linejoin="round"/>
<path d="M13.3025 14.91H21.692M15.9235 12.869L14.4665 21.131M19.4235 12.869L17.9665 21.131M12.3025 19H20.692" stroke="white" stroke-width="2" stroke-linecap="round" stroke-linejoin="round"/>
</svg>
